<?xml version="1.0" standalone="no"?><!DOCTYPE svg PUBLIC "-//W3C//DTD SVG 1.1//EN" "http://www.w3.org/Graphics/SVG/1.1/DTD/svg11.dtd"><svg t="1698974403366" class="icon" viewBox="0 0 1024 1024" version="1.1" xmlns="http://www.w3.org/2000/svg" p-id="6609" width="64" height="64" xmlns:xlink="http://www.w3.org/1999/xlink"><path d="M160 224h704v576H160z" fill="#E4F5FF" p-id="6610"></path><path d="M864 832H160a32 32 0 0 1-32-32V224a32 32 0 0 1 32-32h704a32 32 0 0 1 32 32v576a32 32 0 0 1-32 32zM192 768h640V256H192v512z" fill="#d81e06" p-id="6611" data-spm-anchor-id="a313x.search_index.0.i22.16613a812gunf9" class="selected"></path><path d="M304 128h32v96h-32zM432 128h32v96h-32zM560 128h32v96h-32zM688 128h32v96h-32zM304 800h32v96h-32zM432 800h32v96h-32zM560 800h32v96h-32zM688 800h32v96h-32zM864 688h96v32h-96zM864 560h96v32h-96zM864 432h96v32h-96zM864 304h96v32h-96z" fill="#d81e06" p-id="6612" data-spm-anchor-id="a313x.search_index.0.i25.16613a812gunf9" class="selected"></path><path d="M64 688h96v32H64zM64 560h96v32H64zM64 432h96v32H64zM64 304h96v32H64z" fill="#d81e06" p-id="6613" data-spm-anchor-id="a313x.search_index.0.i23.16613a812gunf9" class="selected"></path><path d="M354.112 518.112l49.632 15.008c-3.328 13.952-8.608 25.536-15.744 34.88s-16.064 16.384-26.688 21.12-24.16 7.136-40.576 7.136c-19.904 0-36.192-2.88-48.8-8.672-12.64-5.76-23.52-15.936-32.672-30.496s-13.76-33.248-13.76-55.968c0-30.304 8.064-53.6 24.192-69.888 16.128-16.288 38.944-24.48 68.416-24.48 23.104 0 41.216 4.672 54.432 14.016s23.04 23.68 29.44 43.008L352 474.848a43.392 43.392 0 0 0-5.504-12.256 32.832 32.832 0 0 0-11.616-10.016 33.376 33.376 0 0 0-15.36-3.488c-12.832 0-22.656 5.152-29.504 15.488-5.152 7.648-7.744 19.68-7.744 36.064 0 20.32 3.104 34.24 9.248 41.76s14.848 11.296 26.016 11.296c10.848 0 19.04-3.04 24.576-9.12 5.536-6.08 9.504-14.88 12-26.464zM431.008 409.856h94.112c20.512 0 35.808 4.864 46.048 14.624 10.176 9.76 15.328 23.616 15.328 41.632 0 18.496-5.568 32.96-16.672 43.36-11.104 10.4-28.064 15.616-50.944 15.616h-31.008v68h-56.864v-183.232z m56.864 78.144h13.888c10.912 0 18.592-1.888 23.008-5.696a18.336 18.336 0 0 0 6.624-14.56c0-5.76-1.92-10.624-5.76-14.624s-11.04-6.016-21.632-6.016h-16.128v40.896zM735.36 409.856h56.512v109.184c0 10.816-1.696 21.056-5.056 30.656a66.304 66.304 0 0 1-15.872 25.248 63.04 63.04 0 0 1-22.688 15.2c-11.008 4.064-24.224 6.08-39.616 6.08a257.92 257.92 0 0 1-29.184-1.888c-10.496-1.248-19.328-3.712-26.4-7.424s-13.6-8.96-19.424-15.776a58.56 58.56 0 0 1-12.064-21.12 111.136 111.136 0 0 1-5.248-31.008v-109.184h56.544V521.6c0 9.984 2.752 17.792 8.32 23.424 5.536 5.6 13.216 8.416 23.072 8.416 9.76 0 17.408-2.752 22.944-8.288 5.568-5.536 8.32-13.376 8.32-23.552v-111.744h-0.16z" fill="#d81e06" p-id="6614" data-spm-anchor-id="a313x.search_index.0.i24.16613a812gunf9" class="selected"></path></svg>