<?xml version="1.0" standalone="no"?><!DOCTYPE svg PUBLIC "-//W3C//DTD SVG 1.1//EN" "http://www.w3.org/Graphics/SVG/1.1/DTD/svg11.dtd"><svg t="1698853639760" class="icon" viewBox="0 0 1024 1024" version="1.1" xmlns="http://www.w3.org/2000/svg" p-id="27354" xmlns:xlink="http://www.w3.org/1999/xlink" width="200" height="200"><path d="M627.539795 1024H396.345976V792.790182h99.094493v-66.057663H148.625741a16.526414 16.526414 0 0 0-16.510416 16.510416v49.595242h99.094493V1024H0V792.790182h99.094493v-49.595242a49.595242 49.595242 0 0 1 49.595242-49.595242h346.750734v-82.472088h-82.584077a99.190484 99.190484 0 0 1-97.590638-82.568079H132.115325v-82.568078H0V214.781634h297.267481v231.209819h-132.115325v49.595242h150.113598a99.190484 99.190484 0 0 1 97.590638-82.568079h82.568078v-149.825626a132.115325 132.115325 0 1 1 33.036831 0v149.777631h82.568078a99.190484 99.190484 0 0 1 97.590638 82.568078h150.113598v-49.595242h-132.099326V214.781634H1023.901769v231.209819h-132.131323v82.568078H708.636015a99.190484 99.190484 0 0 1-97.590637 82.568079h-82.584077v82.568079h346.798729a49.595242 49.595242 0 0 1 49.595242 49.595242v49.595241H1023.901769V1024H792.691951V792.790182h99.094493v-49.595242a16.526414 16.526414 0 0 0-16.510416-16.510416H528.461301v66.057662h99.078494V1024z m198.172988-198.188986v165.152155h165.152156V825.811014z m-396.345975 0v165.152155h165.152155V825.811014z m-396.345976 0v165.152155h165.152156V825.811014z m379.83556-379.819561a66.057663 66.057663 0 1 0 0 132.115325h198.172987a66.057663 66.057663 0 1 0 0-132.115325z m346.798729-198.172988v165.136157h231.209818V247.818465z m-726.634289 0v165.136157h231.209818V247.818465zM511.950885 33.135061a99.094493 99.094493 0 1 0 99.078494 99.094493A99.190484 99.190484 0 0 0 511.950885 33.135061z m132.115325 495.440469h-33.036831v-33.036831h33.036831v33.020832z m-66.057663 0H379.83556v-33.036831h198.172987v33.020832z m379.83556-148.625741h-99.094493v-33.052829h99.078494v33.020832z m-132.115325 0h-33.036831v-33.052829h33.036831v33.020832z m-594.518964 0h-33.03683v-33.052829h33.03683v33.020832z m-66.057662 0H66.057663v-33.052829h99.094493v33.020832z m792.675952-66.073661H792.691951v-33.036831H957.828108v33.020832z m-726.634288 0H66.057663v-33.036831h165.152155v33.020832z" fill="#44B9F9" p-id="27355"></path></svg>